<svg width="24" height="22" viewBox="0 0 24 22" fill="none" xmlns="http://www.w3.org/2000/svg">
<path d="M9.4967 17.3399L9.4967 17.3399L9.49439 17.3374L4.6347 12.1678C4.63464 12.1677 4.63459 12.1677 4.63453 12.1676C4.54371 12.0707 4.49506 11.9417 4.49928 11.809C4.5035 11.6762 4.56032 11.5505 4.65722 11.4595C4.75413 11.3686 4.88319 11.3199 5.01601 11.3241C5.14883 11.3283 5.27454 11.3851 5.36547 11.482L5.3655 11.4821L9.4855 15.8721L9.85491 16.2657L10.2191 15.8673L18.6291 6.66726L18.6399 6.65546L18.6499 6.64298C18.6926 6.58984 18.7457 6.54599 18.8059 6.51411C18.8662 6.48224 18.9323 6.46301 19.0002 6.45762C19.0682 6.45223 19.1365 6.46078 19.201 6.48276C19.2655 6.50473 19.3249 6.53966 19.3754 6.58541C19.4259 6.63115 19.4665 6.68674 19.4948 6.74875C19.523 6.81077 19.5383 6.87791 19.5397 6.94605C19.5411 7.01419 19.5285 7.08188 19.5027 7.14499C19.477 7.20809 19.4386 7.26526 19.3899 7.31298L19.3802 7.32253L19.371 7.33258L10.231 17.3326L10.231 17.3326L10.2289 17.3349C10.1827 17.3861 10.1264 17.4272 10.0636 17.4556C10.0016 17.4836 9.93451 17.4987 9.86647 17.4999H9.86097C9.79266 17.4996 9.72513 17.4853 9.66257 17.4579C9.59977 17.4303 9.54331 17.3902 9.4967 17.3399Z" fill="#46ABFE" stroke="#46ABFE"/>
</svg>
