<svg width="24" height="24" viewBox="0 0 24 24" fill="none" xmlns="http://www.w3.org/2000/svg">
<path d="M19.4001 7.3401L16.6601 4.6001C16.3024 4.2642 15.8338 4.07146 15.3434 4.05855C14.8529 4.04565 14.3748 4.21347 14.0001 4.5301L5.00005 13.5301C4.67682 13.8561 4.47556 14.2833 4.43005 14.7401L4.00005 18.9101C3.98658 19.0566 4.00559 19.2042 4.05571 19.3425C4.10584 19.4808 4.18585 19.6063 4.29005 19.7101C4.38349 19.8028 4.49431 19.8761 4.61615 19.9259C4.73798 19.9756 4.86845 20.0009 5.00005 20.0001H5.09005L9.26005 19.6201C9.71685 19.5746 10.1441 19.3733 10.4701 19.0501L19.4701 10.0501C19.8194 9.68107 20.0082 9.18861 19.995 8.68064C19.9819 8.17266 19.768 7.69061 19.4001 7.3401ZM16.0001 10.6801L13.3201 8.0001L15.2701 6.0001L18.0001 8.7301L16.0001 10.6801Z" fill="#46ABFE"/>
</svg>
