<svg width="24" height="24" viewBox="0 0 24 24" fill="none" xmlns="http://www.w3.org/2000/svg">
<path d="M21 5.99991H16V4.32991C15.9765 3.68973 15.7002 3.08497 15.2316 2.64821C14.7629 2.21144 14.1402 1.97831 13.5 1.99991H10.5C9.85975 1.97831 9.23706 2.21144 8.76843 2.64821C8.2998 3.08497 8.02346 3.68973 8 4.32991V5.99991H3C2.73478 5.99991 2.48043 6.10527 2.29289 6.29281C2.10536 6.48034 2 6.7347 2 6.99991C2 7.26513 2.10536 7.51948 2.29289 7.70702C2.48043 7.89456 2.73478 7.99991 3 7.99991H4V18.9999C4 19.7956 4.31607 20.5586 4.87868 21.1212C5.44129 21.6838 6.20435 21.9999 7 21.9999H17C17.7956 21.9999 18.5587 21.6838 19.1213 21.1212C19.6839 20.5586 20 19.7956 20 18.9999V7.99991H21C21.2652 7.99991 21.5196 7.89456 21.7071 7.70702C21.8946 7.51948 22 7.26513 22 6.99991C22 6.7347 21.8946 6.48034 21.7071 6.29281C21.5196 6.10527 21.2652 5.99991 21 5.99991ZM10 15.9999C10 16.2651 9.89464 16.5195 9.70711 16.707C9.51957 16.8946 9.26522 16.9999 9 16.9999C8.73478 16.9999 8.48043 16.8946 8.29289 16.707C8.10536 16.5195 8 16.2651 8 15.9999V11.9999C8 11.7347 8.10536 11.4803 8.29289 11.2928C8.48043 11.1053 8.73478 10.9999 9 10.9999C9.26522 10.9999 9.51957 11.1053 9.70711 11.2928C9.89464 11.4803 10 11.7347 10 11.9999V15.9999ZM10 4.32991C10 4.16991 10.21 3.99991 10.5 3.99991H13.5C13.79 3.99991 14 4.16991 14 4.32991V5.99991H10V4.32991ZM16 15.9999C16 16.2651 15.8946 16.5195 15.7071 16.707C15.5196 16.8946 15.2652 16.9999 15 16.9999C14.7348 16.9999 14.4804 16.8946 14.2929 16.707C14.1054 16.5195 14 16.2651 14 15.9999V11.9999C14 11.7347 14.1054 11.4803 14.2929 11.2928C14.4804 11.1053 14.7348 10.9999 15 10.9999C15.2652 10.9999 15.5196 11.1053 15.7071 11.2928C15.8946 11.4803 16 11.7347 16 11.9999V15.9999Z" fill="#FE4646"/>
</svg>
